<mxfile host="app.diagrams.net" agent="Mozilla/5.0 (X11; Linux x86_64) AppleWebKit/537.36 (KHTML, like Gecko) Chrome/126.0.0.0 Safari/537.36" version="24.7.16">
  <diagram name="PÃ¡gina-1" id="RYaDu93JRH5T1yxg-O5U">
    <mxGraphModel dx="1134" dy="1034" grid="1" gridSize="10" guides="1" tooltips="1" connect="1" arrows="1" fold="1" page="1" pageScale="1" pageWidth="827" pageHeight="1169" math="0" shadow="0">
      <root>
        <mxCell id="0" />
        <mxCell id="1" parent="0" />
        <mxCell id="RigSfvIxKnmACGcDbRm8-1" value="PELICULAS" style="whiteSpace=wrap;html=1;" vertex="1" parent="1">
          <mxGeometry x="150" y="220" width="120" height="60" as="geometry" />
        </mxCell>
        <mxCell id="RigSfvIxKnmACGcDbRm8-3" value="DIRECTOR" style="whiteSpace=wrap;html=1;" vertex="1" parent="1">
          <mxGeometry x="110" y="30" width="120" height="60" as="geometry" />
        </mxCell>
        <mxCell id="RigSfvIxKnmACGcDbRm8-4" value="EJEMPLARES" style="whiteSpace=wrap;html=1;" vertex="1" parent="1">
          <mxGeometry x="140" y="440" width="120" height="60" as="geometry" />
        </mxCell>
        <mxCell id="RigSfvIxKnmACGcDbRm8-5" value="SOCIO" style="whiteSpace=wrap;html=1;" vertex="1" parent="1">
          <mxGeometry x="500" y="438" width="120" height="60" as="geometry" />
        </mxCell>
        <mxCell id="RigSfvIxKnmACGcDbRm8-6" value="ACTORES" style="whiteSpace=wrap;html=1;" vertex="1" parent="1">
          <mxGeometry x="460" y="210" width="120" height="60" as="geometry" />
        </mxCell>
        <mxCell id="RigSfvIxKnmACGcDbRm8-7" value="titulo&lt;div&gt;Nacionalidad&lt;/div&gt;&lt;div&gt;Productora&lt;/div&gt;&lt;div&gt;Fecha&lt;/div&gt;" style="text;html=1;align=center;verticalAlign=middle;resizable=0;points=[];autosize=1;strokeColor=none;fillColor=none;" vertex="1" parent="1">
          <mxGeometry y="215" width="90" height="70" as="geometry" />
        </mxCell>
        <mxCell id="RigSfvIxKnmACGcDbRm8-8" value="" style="endArrow=none;html=1;rounded=0;entryX=-0.023;entryY=0.242;entryDx=0;entryDy=0;entryPerimeter=0;" edge="1" parent="1" source="RigSfvIxKnmACGcDbRm8-7" target="RigSfvIxKnmACGcDbRm8-1">
          <mxGeometry width="50" height="50" relative="1" as="geometry">
            <mxPoint x="60" y="300" as="sourcePoint" />
            <mxPoint x="110" y="250" as="targetPoint" />
          </mxGeometry>
        </mxCell>
        <mxCell id="RigSfvIxKnmACGcDbRm8-9" value="" style="ellipse;whiteSpace=wrap;html=1;aspect=fixed;strokeColor=#000000;fillColor=#FFFFFF;" vertex="1" parent="1">
          <mxGeometry x="60" y="215" width="20" height="20" as="geometry" />
        </mxCell>
        <mxCell id="RigSfvIxKnmACGcDbRm8-10" value="" style="ellipse;whiteSpace=wrap;html=1;aspect=fixed;" vertex="1" parent="1">
          <mxGeometry x="80" y="232.5" width="15" height="15" as="geometry" />
        </mxCell>
        <mxCell id="RigSfvIxKnmACGcDbRm8-11" value="" style="ellipse;whiteSpace=wrap;html=1;aspect=fixed;" vertex="1" parent="1">
          <mxGeometry x="80" y="250" width="20" height="20" as="geometry" />
        </mxCell>
        <mxCell id="RigSfvIxKnmACGcDbRm8-12" value="" style="ellipse;whiteSpace=wrap;html=1;aspect=fixed;" vertex="1" parent="1">
          <mxGeometry x="70" y="270" width="20" height="20" as="geometry" />
        </mxCell>
        <mxCell id="RigSfvIxKnmACGcDbRm8-13" value="" style="endArrow=none;html=1;rounded=0;entryX=-0.011;entryY=0.187;entryDx=0;entryDy=0;entryPerimeter=0;exitX=1;exitY=0.5;exitDx=0;exitDy=0;" edge="1" parent="1" source="RigSfvIxKnmACGcDbRm8-9" target="RigSfvIxKnmACGcDbRm8-1">
          <mxGeometry width="50" height="50" relative="1" as="geometry">
            <mxPoint x="100" y="253" as="sourcePoint" />
            <mxPoint x="157" y="245" as="targetPoint" />
          </mxGeometry>
        </mxCell>
        <mxCell id="RigSfvIxKnmACGcDbRm8-14" value="" style="endArrow=none;html=1;rounded=0;exitX=1;exitY=0;exitDx=0;exitDy=0;" edge="1" parent="1" source="RigSfvIxKnmACGcDbRm8-11">
          <mxGeometry width="50" height="50" relative="1" as="geometry">
            <mxPoint x="110" y="263" as="sourcePoint" />
            <mxPoint x="150" y="255" as="targetPoint" />
          </mxGeometry>
        </mxCell>
        <mxCell id="RigSfvIxKnmACGcDbRm8-16" value="" style="endArrow=none;html=1;rounded=0;exitX=0.5;exitY=1;exitDx=0;exitDy=0;" edge="1" parent="1" source="RigSfvIxKnmACGcDbRm8-12">
          <mxGeometry width="50" height="50" relative="1" as="geometry">
            <mxPoint x="130" y="283" as="sourcePoint" />
            <mxPoint x="150" y="275" as="targetPoint" />
          </mxGeometry>
        </mxCell>
        <mxCell id="RigSfvIxKnmACGcDbRm8-17" value="" style="shape=or;whiteSpace=wrap;html=1;fillColor=#FFFFFF;" vertex="1" parent="1">
          <mxGeometry x="80" y="270" width="10" height="20" as="geometry" />
        </mxCell>
        <mxCell id="RigSfvIxKnmACGcDbRm8-19" value="Nombre&lt;div&gt;&lt;span style=&quot;background-color: initial;&quot;&gt;&lt;br&gt;&lt;/span&gt;&lt;/div&gt;&lt;div&gt;&lt;span style=&quot;background-color: initial;&quot;&gt;Nacionalidad&lt;/span&gt;&lt;/div&gt;&lt;div&gt;&lt;br&gt;&lt;div&gt;Sexo&lt;/div&gt;&lt;/div&gt;&lt;div&gt;&lt;br&gt;&lt;/div&gt;" style="text;html=1;align=center;verticalAlign=middle;resizable=0;points=[];autosize=1;strokeColor=none;fillColor=none;" vertex="1" parent="1">
          <mxGeometry x="690" y="190" width="90" height="100" as="geometry" />
        </mxCell>
        <mxCell id="RigSfvIxKnmACGcDbRm8-20" value="" style="endArrow=none;html=1;rounded=0;exitX=0.993;exitY=0.133;exitDx=0;exitDy=0;exitPerimeter=0;entryX=0;entryY=1;entryDx=0;entryDy=0;" edge="1" parent="1" source="RigSfvIxKnmACGcDbRm8-6" target="RigSfvIxKnmACGcDbRm8-21">
          <mxGeometry width="50" height="50" relative="1" as="geometry">
            <mxPoint x="570" y="330" as="sourcePoint" />
            <mxPoint x="640" y="218" as="targetPoint" />
          </mxGeometry>
        </mxCell>
        <mxCell id="RigSfvIxKnmACGcDbRm8-21" value="" style="ellipse;whiteSpace=wrap;html=1;aspect=fixed;fillColor=#000000;" vertex="1" parent="1">
          <mxGeometry x="690" y="195" width="20" height="20" as="geometry" />
        </mxCell>
        <mxCell id="RigSfvIxKnmACGcDbRm8-22" value="" style="ellipse;whiteSpace=wrap;html=1;aspect=fixed;" vertex="1" parent="1">
          <mxGeometry x="670" y="220" width="20" height="20" as="geometry" />
        </mxCell>
        <mxCell id="RigSfvIxKnmACGcDbRm8-23" value="" style="ellipse;whiteSpace=wrap;html=1;aspect=fixed;" vertex="1" parent="1">
          <mxGeometry x="700" y="250" width="20" height="20" as="geometry" />
        </mxCell>
        <mxCell id="RigSfvIxKnmACGcDbRm8-24" value="" style="endArrow=none;html=1;rounded=0;exitX=1;exitY=0.5;exitDx=0;exitDy=0;entryX=0;entryY=0.5;entryDx=0;entryDy=0;" edge="1" parent="1" source="RigSfvIxKnmACGcDbRm8-6" target="RigSfvIxKnmACGcDbRm8-22">
          <mxGeometry width="50" height="50" relative="1" as="geometry">
            <mxPoint x="589" y="228" as="sourcePoint" />
            <mxPoint x="703" y="222" as="targetPoint" />
          </mxGeometry>
        </mxCell>
        <mxCell id="RigSfvIxKnmACGcDbRm8-25" value="" style="endArrow=none;html=1;rounded=0;exitX=1.017;exitY=0.857;exitDx=0;exitDy=0;exitPerimeter=0;entryX=0;entryY=0.5;entryDx=0;entryDy=0;" edge="1" parent="1" source="RigSfvIxKnmACGcDbRm8-6" target="RigSfvIxKnmACGcDbRm8-23">
          <mxGeometry width="50" height="50" relative="1" as="geometry">
            <mxPoint x="599" y="238" as="sourcePoint" />
            <mxPoint x="713" y="232" as="targetPoint" />
          </mxGeometry>
        </mxCell>
        <mxCell id="RigSfvIxKnmACGcDbRm8-26" value="" style="endArrow=none;html=1;rounded=0;exitX=1;exitY=0.5;exitDx=0;exitDy=0;entryX=0;entryY=0.667;entryDx=0;entryDy=0;entryPerimeter=0;" edge="1" parent="1" source="RigSfvIxKnmACGcDbRm8-27" target="RigSfvIxKnmACGcDbRm8-6">
          <mxGeometry width="50" height="50" relative="1" as="geometry">
            <mxPoint x="250" y="230" as="sourcePoint" />
            <mxPoint x="300" y="180" as="targetPoint" />
          </mxGeometry>
        </mxCell>
        <mxCell id="RigSfvIxKnmACGcDbRm8-28" value="" style="endArrow=none;html=1;rounded=0;exitX=1;exitY=0.5;exitDx=0;exitDy=0;entryX=0;entryY=0.5;entryDx=0;entryDy=0;" edge="1" parent="1" source="RigSfvIxKnmACGcDbRm8-1" target="RigSfvIxKnmACGcDbRm8-27">
          <mxGeometry width="50" height="50" relative="1" as="geometry">
            <mxPoint x="270" y="250" as="sourcePoint" />
            <mxPoint x="460" y="250" as="targetPoint" />
          </mxGeometry>
        </mxCell>
        <mxCell id="RigSfvIxKnmACGcDbRm8-27" value="Tiene" style="rhombus;whiteSpace=wrap;html=1;" vertex="1" parent="1">
          <mxGeometry x="350" y="235" width="30" height="30" as="geometry" />
        </mxCell>
        <mxCell id="RigSfvIxKnmACGcDbRm8-29" value="" style="endArrow=none;html=1;rounded=0;exitX=0.947;exitY=0.327;exitDx=0;exitDy=0;exitPerimeter=0;entryX=0.455;entryY=1.122;entryDx=0;entryDy=0;entryPerimeter=0;" edge="1" parent="1" source="RigSfvIxKnmACGcDbRm8-27" target="RigSfvIxKnmACGcDbRm8-31">
          <mxGeometry width="50" height="50" relative="1" as="geometry">
            <mxPoint x="390" y="260" as="sourcePoint" />
            <mxPoint x="390" y="220" as="targetPoint" />
          </mxGeometry>
        </mxCell>
        <mxCell id="RigSfvIxKnmACGcDbRm8-30" value="" style="ellipse;whiteSpace=wrap;html=1;aspect=fixed;" vertex="1" parent="1">
          <mxGeometry x="395" y="180" width="10" height="10" as="geometry" />
        </mxCell>
        <mxCell id="RigSfvIxKnmACGcDbRm8-31" value="Actor_principal" style="text;html=1;align=center;verticalAlign=middle;resizable=0;points=[];autosize=1;strokeColor=none;fillColor=none;" vertex="1" parent="1">
          <mxGeometry x="350" y="160" width="100" height="30" as="geometry" />
        </mxCell>
        <mxCell id="RigSfvIxKnmACGcDbRm8-32" value="(0,n)" style="text;html=1;align=center;verticalAlign=middle;resizable=0;points=[];autosize=1;strokeColor=none;fillColor=none;" vertex="1" parent="1">
          <mxGeometry x="255" y="218" width="50" height="30" as="geometry" />
        </mxCell>
        <mxCell id="RigSfvIxKnmACGcDbRm8-33" value="(1,n)" style="text;html=1;align=center;verticalAlign=middle;resizable=0;points=[];autosize=1;strokeColor=none;fillColor=none;" vertex="1" parent="1">
          <mxGeometry x="414" y="218" width="50" height="30" as="geometry" />
        </mxCell>
        <mxCell id="RigSfvIxKnmACGcDbRm8-34" value="N:1" style="text;html=1;align=center;verticalAlign=middle;resizable=0;points=[];autosize=1;strokeColor=none;fillColor=none;" vertex="1" parent="1">
          <mxGeometry x="345" y="210" width="40" height="30" as="geometry" />
        </mxCell>
        <mxCell id="RigSfvIxKnmACGcDbRm8-36" value="Nombre&lt;div&gt;&lt;br&gt;&lt;/div&gt;&lt;div&gt;Nacionalidad&lt;/div&gt;" style="text;html=1;align=center;verticalAlign=middle;resizable=0;points=[];autosize=1;strokeColor=none;fillColor=none;" vertex="1" parent="1">
          <mxGeometry x="270" y="20" width="90" height="60" as="geometry" />
        </mxCell>
        <mxCell id="RigSfvIxKnmACGcDbRm8-37" value="" style="ellipse;whiteSpace=wrap;html=1;aspect=fixed;fillColor=#000000;" vertex="1" parent="1">
          <mxGeometry x="270" y="20" width="20" height="20" as="geometry" />
        </mxCell>
        <mxCell id="RigSfvIxKnmACGcDbRm8-38" value="" style="ellipse;whiteSpace=wrap;html=1;aspect=fixed;" vertex="1" parent="1">
          <mxGeometry x="260" y="60" width="20" height="20" as="geometry" />
        </mxCell>
        <mxCell id="RigSfvIxKnmACGcDbRm8-41" value="" style="endArrow=none;html=1;rounded=0;exitX=1;exitY=0.75;exitDx=0;exitDy=0;entryX=0;entryY=0.5;entryDx=0;entryDy=0;" edge="1" parent="1" source="RigSfvIxKnmACGcDbRm8-3" target="RigSfvIxKnmACGcDbRm8-38">
          <mxGeometry width="50" height="50" relative="1" as="geometry">
            <mxPoint x="320" y="230" as="sourcePoint" />
            <mxPoint x="370" y="180" as="targetPoint" />
          </mxGeometry>
        </mxCell>
        <mxCell id="RigSfvIxKnmACGcDbRm8-42" value="" style="endArrow=none;html=1;rounded=0;exitX=1.025;exitY=0.367;exitDx=0;exitDy=0;entryX=0;entryY=0;entryDx=0;entryDy=0;exitPerimeter=0;" edge="1" parent="1" source="RigSfvIxKnmACGcDbRm8-3" target="RigSfvIxKnmACGcDbRm8-37">
          <mxGeometry width="50" height="50" relative="1" as="geometry">
            <mxPoint x="240" y="85" as="sourcePoint" />
            <mxPoint x="270" y="80" as="targetPoint" />
          </mxGeometry>
        </mxCell>
        <mxCell id="RigSfvIxKnmACGcDbRm8-43" value="" style="endArrow=none;html=1;rounded=0;entryX=0.81;entryY=1.075;entryDx=0;entryDy=0;entryPerimeter=0;exitX=0.5;exitY=0;exitDx=0;exitDy=0;" edge="1" parent="1" source="RigSfvIxKnmACGcDbRm8-1" target="RigSfvIxKnmACGcDbRm8-3">
          <mxGeometry width="50" height="50" relative="1" as="geometry">
            <mxPoint x="320" y="270" as="sourcePoint" />
            <mxPoint x="370" y="220" as="targetPoint" />
          </mxGeometry>
        </mxCell>
        <mxCell id="RigSfvIxKnmACGcDbRm8-44" value="Pertenece" style="rhombus;whiteSpace=wrap;html=1;" vertex="1" parent="1">
          <mxGeometry x="190" y="140" width="40" height="40" as="geometry" />
        </mxCell>
        <mxCell id="RigSfvIxKnmACGcDbRm8-45" value="(1,n)" style="text;html=1;align=center;verticalAlign=middle;resizable=0;points=[];autosize=1;strokeColor=none;fillColor=none;" vertex="1" parent="1">
          <mxGeometry x="170" y="190" width="50" height="30" as="geometry" />
        </mxCell>
        <mxCell id="RigSfvIxKnmACGcDbRm8-46" value="(1,1)" style="text;html=1;align=center;verticalAlign=middle;resizable=0;points=[];autosize=1;strokeColor=none;fillColor=none;" vertex="1" parent="1">
          <mxGeometry x="165" y="88" width="50" height="30" as="geometry" />
        </mxCell>
        <mxCell id="RigSfvIxKnmACGcDbRm8-47" value="1&lt;div&gt;. .&lt;/div&gt;&lt;div&gt;N&lt;/div&gt;" style="text;html=1;align=center;verticalAlign=middle;resizable=0;points=[];autosize=1;strokeColor=none;fillColor=none;" vertex="1" parent="1">
          <mxGeometry x="152.5" y="120" width="30" height="60" as="geometry" />
        </mxCell>
        <mxCell id="RigSfvIxKnmACGcDbRm8-48" value="NÂºEjemplar&amp;nbsp; &amp;nbsp; &amp;nbsp; &amp;nbsp; &amp;nbsp; &amp;nbsp;estado_ejemlar" style="text;html=1;align=center;verticalAlign=middle;resizable=0;points=[];autosize=1;strokeColor=none;fillColor=none;" vertex="1" parent="1">
          <mxGeometry x="110" y="540" width="200" height="30" as="geometry" />
        </mxCell>
        <mxCell id="RigSfvIxKnmACGcDbRm8-49" value="" style="ellipse;whiteSpace=wrap;html=1;aspect=fixed;fillColor=#000000;" vertex="1" parent="1">
          <mxGeometry x="140" y="530" width="20" height="20" as="geometry" />
        </mxCell>
        <mxCell id="RigSfvIxKnmACGcDbRm8-51" value="" style="ellipse;whiteSpace=wrap;html=1;aspect=fixed;" vertex="1" parent="1">
          <mxGeometry x="240" y="530" width="20" height="20" as="geometry" />
        </mxCell>
        <mxCell id="RigSfvIxKnmACGcDbRm8-52" value="" style="endArrow=none;html=1;rounded=0;entryX=0.5;entryY=1;entryDx=0;entryDy=0;exitX=0.5;exitY=0;exitDx=0;exitDy=0;" edge="1" parent="1" source="RigSfvIxKnmACGcDbRm8-49" target="RigSfvIxKnmACGcDbRm8-4">
          <mxGeometry width="50" height="50" relative="1" as="geometry">
            <mxPoint x="370" y="550" as="sourcePoint" />
            <mxPoint x="420" y="500" as="targetPoint" />
          </mxGeometry>
        </mxCell>
        <mxCell id="RigSfvIxKnmACGcDbRm8-53" value="" style="endArrow=none;html=1;rounded=0;entryX=0.75;entryY=1;entryDx=0;entryDy=0;exitX=0.5;exitY=0;exitDx=0;exitDy=0;" edge="1" parent="1" source="RigSfvIxKnmACGcDbRm8-51" target="RigSfvIxKnmACGcDbRm8-4">
          <mxGeometry width="50" height="50" relative="1" as="geometry">
            <mxPoint x="160" y="540" as="sourcePoint" />
            <mxPoint x="210" y="510" as="targetPoint" />
          </mxGeometry>
        </mxCell>
        <mxCell id="RigSfvIxKnmACGcDbRm8-54" value="" style="endArrow=none;html=1;rounded=0;entryX=0.5;entryY=1;entryDx=0;entryDy=0;" edge="1" parent="1" source="RigSfvIxKnmACGcDbRm8-55" target="RigSfvIxKnmACGcDbRm8-1">
          <mxGeometry width="50" height="50" relative="1" as="geometry">
            <mxPoint x="330" y="530" as="sourcePoint" />
            <mxPoint x="380" y="480" as="targetPoint" />
          </mxGeometry>
        </mxCell>
        <mxCell id="RigSfvIxKnmACGcDbRm8-56" value="" style="endArrow=none;html=1;rounded=0;entryX=0.5;entryY=1;entryDx=0;entryDy=0;" edge="1" parent="1" source="RigSfvIxKnmACGcDbRm8-4" target="RigSfvIxKnmACGcDbRm8-55">
          <mxGeometry width="50" height="50" relative="1" as="geometry">
            <mxPoint x="202" y="440" as="sourcePoint" />
            <mxPoint x="210" y="280" as="targetPoint" />
          </mxGeometry>
        </mxCell>
        <mxCell id="RigSfvIxKnmACGcDbRm8-55" value="ID&lt;div&gt;&lt;br&gt;&lt;/div&gt;" style="rhombus;whiteSpace=wrap;html=1;" vertex="1" parent="1">
          <mxGeometry x="182.5" y="340" width="47.5" height="50" as="geometry" />
        </mxCell>
        <mxCell id="RigSfvIxKnmACGcDbRm8-57" value="(1,n)" style="text;html=1;align=center;verticalAlign=middle;resizable=0;points=[];autosize=1;strokeColor=none;fillColor=none;" vertex="1" parent="1">
          <mxGeometry x="155" y="408" width="50" height="30" as="geometry" />
        </mxCell>
        <mxCell id="RigSfvIxKnmACGcDbRm8-58" value="(1,1)" style="text;html=1;align=center;verticalAlign=middle;resizable=0;points=[];autosize=1;strokeColor=none;fillColor=none;" vertex="1" parent="1">
          <mxGeometry x="165" y="278" width="50" height="30" as="geometry" />
        </mxCell>
        <mxCell id="RigSfvIxKnmACGcDbRm8-59" value="1&lt;div&gt;. .&lt;br&gt;N&lt;/div&gt;" style="text;html=1;align=center;verticalAlign=middle;resizable=0;points=[];autosize=1;strokeColor=none;fillColor=none;" vertex="1" parent="1">
          <mxGeometry x="150" y="330" width="30" height="60" as="geometry" />
        </mxCell>
        <mxCell id="RigSfvIxKnmACGcDbRm8-60" value="DNI&amp;nbsp; &amp;nbsp; Nombre&amp;nbsp; &amp;nbsp;Direccion&amp;nbsp; &amp;nbsp;Telefono" style="text;html=1;align=center;verticalAlign=middle;resizable=0;points=[];autosize=1;strokeColor=none;fillColor=none;" vertex="1" parent="1">
          <mxGeometry x="450" y="550" width="220" height="30" as="geometry" />
        </mxCell>
        <mxCell id="RigSfvIxKnmACGcDbRm8-61" value="" style="ellipse;whiteSpace=wrap;html=1;aspect=fixed;fillColor=#000000;" vertex="1" parent="1">
          <mxGeometry x="464" y="530" width="20" height="20" as="geometry" />
        </mxCell>
        <mxCell id="RigSfvIxKnmACGcDbRm8-62" value="" style="ellipse;whiteSpace=wrap;html=1;aspect=fixed;" vertex="1" parent="1">
          <mxGeometry x="510" y="530" width="20" height="20" as="geometry" />
        </mxCell>
        <mxCell id="RigSfvIxKnmACGcDbRm8-63" value="" style="ellipse;whiteSpace=wrap;html=1;aspect=fixed;" vertex="1" parent="1">
          <mxGeometry x="570" y="530" width="20" height="20" as="geometry" />
        </mxCell>
        <mxCell id="RigSfvIxKnmACGcDbRm8-64" value="" style="ellipse;whiteSpace=wrap;html=1;aspect=fixed;" vertex="1" parent="1">
          <mxGeometry x="630" y="530" width="20" height="20" as="geometry" />
        </mxCell>
        <mxCell id="RigSfvIxKnmACGcDbRm8-65" value="" style="endArrow=none;html=1;rounded=0;entryX=0;entryY=1;entryDx=0;entryDy=0;exitX=1;exitY=0;exitDx=0;exitDy=0;" edge="1" parent="1" source="RigSfvIxKnmACGcDbRm8-61" target="RigSfvIxKnmACGcDbRm8-5">
          <mxGeometry width="50" height="50" relative="1" as="geometry">
            <mxPoint x="330" y="530" as="sourcePoint" />
            <mxPoint x="380" y="480" as="targetPoint" />
          </mxGeometry>
        </mxCell>
        <mxCell id="RigSfvIxKnmACGcDbRm8-66" value="" style="endArrow=none;html=1;rounded=0;entryX=0.192;entryY=0.983;entryDx=0;entryDy=0;exitX=0;exitY=0;exitDx=0;exitDy=0;entryPerimeter=0;" edge="1" parent="1" source="RigSfvIxKnmACGcDbRm8-62" target="RigSfvIxKnmACGcDbRm8-5">
          <mxGeometry width="50" height="50" relative="1" as="geometry">
            <mxPoint x="491" y="543" as="sourcePoint" />
            <mxPoint x="510" y="508" as="targetPoint" />
          </mxGeometry>
        </mxCell>
        <mxCell id="RigSfvIxKnmACGcDbRm8-67" value="" style="endArrow=none;html=1;rounded=0;exitX=0;exitY=0;exitDx=0;exitDy=0;" edge="1" parent="1" source="RigSfvIxKnmACGcDbRm8-63">
          <mxGeometry width="50" height="50" relative="1" as="geometry">
            <mxPoint x="501" y="553" as="sourcePoint" />
            <mxPoint x="570" y="500" as="targetPoint" />
          </mxGeometry>
        </mxCell>
        <mxCell id="RigSfvIxKnmACGcDbRm8-68" value="" style="endArrow=none;html=1;rounded=0;entryX=1;entryY=1;entryDx=0;entryDy=0;exitX=0;exitY=0;exitDx=0;exitDy=0;" edge="1" parent="1" source="RigSfvIxKnmACGcDbRm8-64" target="RigSfvIxKnmACGcDbRm8-5">
          <mxGeometry width="50" height="50" relative="1" as="geometry">
            <mxPoint x="630" y="520" as="sourcePoint" />
            <mxPoint x="530" y="528" as="targetPoint" />
          </mxGeometry>
        </mxCell>
        <mxCell id="RigSfvIxKnmACGcDbRm8-69" value="" style="endArrow=none;html=1;rounded=0;entryX=0;entryY=0.5;entryDx=0;entryDy=0;exitX=0.992;exitY=0.4;exitDx=0;exitDy=0;exitPerimeter=0;" edge="1" parent="1" source="RigSfvIxKnmACGcDbRm8-4" target="RigSfvIxKnmACGcDbRm8-5">
          <mxGeometry width="50" height="50" relative="1" as="geometry">
            <mxPoint x="330" y="530" as="sourcePoint" />
            <mxPoint x="380" y="480" as="targetPoint" />
          </mxGeometry>
        </mxCell>
        <mxCell id="RigSfvIxKnmACGcDbRm8-70" value="Alquila" style="rhombus;whiteSpace=wrap;html=1;" vertex="1" parent="1">
          <mxGeometry x="355" y="451.5" width="40" height="37" as="geometry" />
        </mxCell>
        <mxCell id="RigSfvIxKnmACGcDbRm8-71" value="" style="endArrow=none;html=1;rounded=0;" edge="1" parent="1">
          <mxGeometry width="50" height="50" relative="1" as="geometry">
            <mxPoint x="400" y="410" as="sourcePoint" />
            <mxPoint x="380" y="460" as="targetPoint" />
          </mxGeometry>
        </mxCell>
        <mxCell id="RigSfvIxKnmACGcDbRm8-72" value="Fecha_alquiler&lt;div&gt;&lt;br&gt;&lt;/div&gt;" style="text;html=1;align=center;verticalAlign=middle;resizable=0;points=[];autosize=1;strokeColor=none;fillColor=none;" vertex="1" parent="1">
          <mxGeometry x="380" y="390" width="100" height="40" as="geometry" />
        </mxCell>
        <mxCell id="RigSfvIxKnmACGcDbRm8-73" value="" style="endArrow=none;html=1;rounded=0;entryX=0;entryY=0;entryDx=0;entryDy=0;" edge="1" parent="1" target="RigSfvIxKnmACGcDbRm8-70">
          <mxGeometry width="50" height="50" relative="1" as="geometry">
            <mxPoint x="340" y="410" as="sourcePoint" />
            <mxPoint x="390" y="470" as="targetPoint" />
          </mxGeometry>
        </mxCell>
        <mxCell id="RigSfvIxKnmACGcDbRm8-74" value="Devolucion" style="text;html=1;align=center;verticalAlign=middle;resizable=0;points=[];autosize=1;strokeColor=none;fillColor=none;" vertex="1" parent="1">
          <mxGeometry x="280" y="380" width="80" height="30" as="geometry" />
        </mxCell>
        <mxCell id="RigSfvIxKnmACGcDbRm8-75" value="" style="ellipse;whiteSpace=wrap;html=1;aspect=fixed;" vertex="1" parent="1">
          <mxGeometry x="395" y="408" width="12" height="12" as="geometry" />
        </mxCell>
        <mxCell id="RigSfvIxKnmACGcDbRm8-77" value="" style="ellipse;whiteSpace=wrap;html=1;aspect=fixed;" vertex="1" parent="1">
          <mxGeometry x="333" y="404" width="12" height="12" as="geometry" />
        </mxCell>
        <mxCell id="RigSfvIxKnmACGcDbRm8-78" value="(0,n)" style="text;html=1;align=center;verticalAlign=middle;resizable=0;points=[];autosize=1;strokeColor=none;fillColor=none;" vertex="1" parent="1">
          <mxGeometry x="245" y="438" width="50" height="30" as="geometry" />
        </mxCell>
        <mxCell id="RigSfvIxKnmACGcDbRm8-79" value="(0,n)" style="text;html=1;align=center;verticalAlign=middle;resizable=0;points=[];autosize=1;strokeColor=none;fillColor=none;" vertex="1" parent="1">
          <mxGeometry x="455" y="438" width="50" height="30" as="geometry" />
        </mxCell>
        <mxCell id="RigSfvIxKnmACGcDbRm8-80" value="N:M" style="text;html=1;align=center;verticalAlign=middle;resizable=0;points=[];autosize=1;strokeColor=none;fillColor=none;" vertex="1" parent="1">
          <mxGeometry x="350" y="488.5" width="50" height="30" as="geometry" />
        </mxCell>
        <mxCell id="RigSfvIxKnmACGcDbRm8-81" value="cod_pelicula" style="text;html=1;align=center;verticalAlign=middle;resizable=0;points=[];autosize=1;strokeColor=none;fillColor=none;" vertex="1" parent="1">
          <mxGeometry x="5" y="300" width="90" height="30" as="geometry" />
        </mxCell>
        <mxCell id="RigSfvIxKnmACGcDbRm8-82" value="" style="ellipse;whiteSpace=wrap;html=1;aspect=fixed;" vertex="1" parent="1">
          <mxGeometry x="90" y="305" width="20" height="20" as="geometry" />
        </mxCell>
        <mxCell id="RigSfvIxKnmACGcDbRm8-83" value="" style="endArrow=none;html=1;rounded=0;entryX=0.029;entryY=1.052;entryDx=0;entryDy=0;entryPerimeter=0;exitX=1;exitY=0.5;exitDx=0;exitDy=0;" edge="1" parent="1" source="RigSfvIxKnmACGcDbRm8-82" target="RigSfvIxKnmACGcDbRm8-1">
          <mxGeometry width="50" height="50" relative="1" as="geometry">
            <mxPoint x="110" y="350" as="sourcePoint" />
            <mxPoint x="160" y="300" as="targetPoint" />
          </mxGeometry>
        </mxCell>
        <mxCell id="RigSfvIxKnmACGcDbRm8-84" value="" style="whiteSpace=wrap;html=1;fillColor=none;" vertex="1" parent="1">
          <mxGeometry x="150" y="445" width="100" height="53" as="geometry" />
        </mxCell>
        <mxCell id="RigSfvIxKnmACGcDbRm8-86" value="" style="endArrow=none;html=1;rounded=0;exitX=0.917;exitY=0.067;exitDx=0;exitDy=0;exitPerimeter=0;" edge="1" parent="1" source="RigSfvIxKnmACGcDbRm8-5">
          <mxGeometry width="50" height="50" relative="1" as="geometry">
            <mxPoint x="570" y="430" as="sourcePoint" />
            <mxPoint x="610" y="350" as="targetPoint" />
          </mxGeometry>
        </mxCell>
        <mxCell id="RigSfvIxKnmACGcDbRm8-87" value="" style="endArrow=none;html=1;rounded=0;" edge="1" parent="1">
          <mxGeometry width="50" height="50" relative="1" as="geometry">
            <mxPoint x="610" y="350" as="sourcePoint" />
            <mxPoint x="750" y="350" as="targetPoint" />
          </mxGeometry>
        </mxCell>
        <mxCell id="RigSfvIxKnmACGcDbRm8-91" value="Avala" style="rhombus;whiteSpace=wrap;html=1;" vertex="1" parent="1">
          <mxGeometry x="720" y="350" width="60" height="60" as="geometry" />
        </mxCell>
        <mxCell id="RigSfvIxKnmACGcDbRm8-93" value="" style="endArrow=none;html=1;rounded=0;exitX=1;exitY=0.5;exitDx=0;exitDy=0;" edge="1" parent="1" source="RigSfvIxKnmACGcDbRm8-5">
          <mxGeometry width="50" height="50" relative="1" as="geometry">
            <mxPoint x="570" y="430" as="sourcePoint" />
            <mxPoint x="750" y="470" as="targetPoint" />
          </mxGeometry>
        </mxCell>
        <mxCell id="RigSfvIxKnmACGcDbRm8-96" value="" style="endArrow=none;html=1;rounded=0;" edge="1" parent="1" target="RigSfvIxKnmACGcDbRm8-91">
          <mxGeometry width="50" height="50" relative="1" as="geometry">
            <mxPoint x="750" y="470" as="sourcePoint" />
            <mxPoint x="620" y="380" as="targetPoint" />
          </mxGeometry>
        </mxCell>
        <mxCell id="RigSfvIxKnmACGcDbRm8-97" value="tiene" style="triangle;whiteSpace=wrap;html=1;direction=south;" vertex="1" parent="1">
          <mxGeometry x="184.22" y="370" width="44.06" height="20" as="geometry" />
        </mxCell>
        <mxCell id="RigSfvIxKnmACGcDbRm8-98" value="(0,n)" style="text;html=1;align=center;verticalAlign=middle;resizable=0;points=[];autosize=1;strokeColor=none;fillColor=none;" vertex="1" parent="1">
          <mxGeometry x="615" y="440" width="50" height="30" as="geometry" />
        </mxCell>
        <mxCell id="RigSfvIxKnmACGcDbRm8-99" value="(0,1)" style="text;html=1;align=center;verticalAlign=middle;resizable=0;points=[];autosize=1;strokeColor=none;fillColor=none;" vertex="1" parent="1">
          <mxGeometry x="595" y="408" width="50" height="30" as="geometry" />
        </mxCell>
        <mxCell id="RigSfvIxKnmACGcDbRm8-100" value="1&lt;div&gt;. .&lt;/div&gt;&lt;div&gt;N&lt;/div&gt;" style="text;html=1;align=center;verticalAlign=middle;resizable=0;points=[];autosize=1;strokeColor=none;fillColor=none;" vertex="1" parent="1">
          <mxGeometry x="775" y="353" width="30" height="60" as="geometry" />
        </mxCell>
      </root>
    </mxGraphModel>
  </diagram>
</mxfile>
